PathFileType	4	(X/Y/Z)	 s03c0101.trc
DataRate	CameraRate	NumFrames	NumMarkers	Units	OrigDataRate	OrigDataStartFrame	OrigNumFrames
200	200	5	52	mm	200	1001	2000
Frame#	Time	racr			lacr			c7			jug			rlel			rdr			llel			ldr			s2			lic			ric			lasi			rasi			rpsi			lpsi			rgt			lgt			rth1			rth2			rth3			rth4			rlfc			rmfc			rsh1			rsh2			rsh3			rsh4			rlmal			rmmal			rcal			rtoe			rmt5			rmt1			lth1			lth2			lth4			lth3			llfc			lmfc			lsh1			lsh2			lsh3			lsh4			llmal			lmmal			lcal			ltoe			lmt1			lmt5			SBIKE			LBIKE			RBIKE			
		X1	Y1	Z1	X2	Y2	Z2	X3	Y3	Z3	X4	Y4	Z4	X5	Y5	Z5	X6	Y6	Z6	X7	Y7	Z7	X8	Y8	Z8	X9	Y9	Z9	X10	Y10	Z10	X11	Y11	Z11	X12	Y12	Z12	X13	Y13	Z13	X14	Y14	Z14	X15	Y15	Z15	X16	Y16	Z16	X17	Y17	Z17	X18	Y18	Z18	X19	Y19	Z19	X20	Y20	Z20	X21	Y21	Z21	X22	Y22	Z22	X23	Y23	Z23	X24	Y24	Z24	X25	Y25	Z25	X26	Y26	Z26	X27	Y27	Z27	X28	Y28	Z28	X29	Y29	Z29	X30	Y30	Z30	X31	Y31	Z31	X32	Y32	Z32	X33	Y33	Z33	X34	Y34	Z34	X35	Y35	Z35	X36	Y36	Z36	X37	Y37	Z37	X38	Y38	Z38	X39	Y39	Z39	X40	Y40	Z40	X41	Y41	Z41	X42	Y42	Z42	X43	Y43	Z43	X44	Y44	Z44	X45	Y45	Z45	X46	Y46	Z46	X47	Y47	Z47	X48	Y48	Z48	X49	Y49	Z49	X50	Y50	Z50	X51	Y51	Z51	X52	Y52	Z52	
1001	5.0050	450.737002	1430.596074	-97.917422	477.403681	1410.542297	-399.762591	399.421279	1509.488116	-258.281806	412.974116	1335.679911	-244.644123	503.886289	1168.138781	-10.980571	726.515212	966.490774	-47.965063	559.421465	1160.859617	-482.721872	755.603671	929.514191	-418.021045	-107.034751	1209.684297	-284.186474	72.268048	1236.712085	-451.665246	31.753076	1274.370103	-90.583946	91.888190	1174.403002	-409.942901	73.403238	1208.399007	-133.588657	-90.682612	1268.649935	-247.473629	-78.377212	1259.306158	-326.071076	10.966172	1200.965123	-75.058643	17.154502	1107.086412	-462.764112	141.558877	1135.136952	-43.389666	230.472252	1136.531384	-38.741049	307.091815	1096.993188	-30.904132	239.736284	1167.801852	-58.512475	431.327179	1041.891245	-45.025497	449.171756	1017.843519	-174.019257	362.348212	894.394996	-25.397439	337.486343	809.659644	-37.843711	273.651518	748.805889	-39.114754	364.477885	795.553669	-60.562688	199.333329	633.950560	-58.284820	228.472813	640.394365	-143.681859	126.807546	610.492713	-97.563917	410.605730	486.006449	-116.475561	298.788178	516.528934	-41.330123	322.077120	523.090306	-153.785419	101.080885	973.903863	-483.695410	164.951175	915.177512	-487.916248	196.024260	935.281552	-484.748321	192.901566	831.111833	-477.970693	274.801282	728.012339	-458.830866	281.923637	719.285795	-336.081226	211.391427	567.070949	-470.241490	215.000420	484.573538	-451.267091	173.025928	405.137216	-437.240265	249.647703	479.923170	-432.644532	138.532080	288.163234	-410.565754	178.618489	294.476028	-329.848689	72.601038	278.718102	-362.714172	346.916319	131.164798	-352.858425	258.085886	172.182899	-312.345253	227.325949	158.908939	-428.186433	-211.698904	947.491754	-231.689066	-4.276573	83.947493	-432.479350	-8.542282	82.448011	-32.126302	
1002	5.0100	449.249590	1430.556138	-96.290330	477.843645	1410.209571	-398.006010	399.171135	1509.460943	-256.900828	412.214405	1335.627872	-243.129646	502.591691	1168.341256	-9.820638	725.498254	967.115776	-47.759309	559.076817	1160.570901	-482.080084	755.523461	929.095729	-417.660493	-107.599976	1210.795087	-284.712128	72.005949	1237.542399	-452.293412	30.414153	1275.842604	-91.036541	91.062687	1174.972894	-410.292140	72.688745	1208.572110	-133.636522	-91.304324	1269.917187	-248.151715	-78.838057	1260.503268	-326.751978	10.318110	1201.532294	-75.534453	16.835368	1108.010549	-463.377820	141.147606	1134.601994	-44.152775	230.166511	1135.834831	-39.735364	306.595102	1096.153391	-32.524965	239.416929	1167.363286	-59.290337	431.062329	1040.827620	-47.359959	448.242193	1017.514294	-176.334630	364.105823	891.781323	-26.889798	340.505247	806.570389	-38.939175	277.501144	744.757773	-39.588438	367.569964	792.793589	-61.703491	204.962515	628.392416	-57.899963	233.750407	635.213373	-143.569456	132.818892	602.785746	-96.883193	420.266431	487.097420	-116.588378	307.989293	513.849830	-41.299578	330.450244	521.667421	-153.845583	101.718682	976.171878	-484.343261	165.966335	917.898427	-488.947730	196.874948	938.117364	-485.612584	194.402053	833.862383	-479.735610	276.329765	730.629509	-461.006073	284.042931	721.750941	-337.995318	210.378702	570.537112	-471.646414	212.467432	487.388544	-451.195990	169.489774	409.335735	-437.996213	247.009768	482.413873	-432.794235	133.455578	293.419878	-411.353545	174.263225	298.707892	-330.517013	67.319789	286.161942	-362.884252	328.987299	124.367915	-344.496340	249.274828	173.676284	-312.294637	218.315771	161.569528	-428.198962	-211.804054	947.511784	-231.917135	-4.289629	83.972372	-432.557467	-8.327185	82.200331	-32.311542	
1003	5.0150	447.858549	1430.498250	-94.791775	478.258160	1409.835935	-396.360848	398.935530	1509.352592	-255.606803	411.541972	1335.503208	-241.680940	501.309097	1168.320150	-8.758978	724.587073	967.665441	-47.704746	558.783954	1160.254524	-481.485831	755.557033	928.691497	-417.528023	-108.042270	1211.956768	-285.067825	71.431099	1238.405148	-452.651482	29.138696	1277.158585	-91.383993	90.447489	1175.702420	-410.960438	72.042070	1208.550297	-133.525666	-91.854918	1270.914080	-248.762006	-79.341278	1261.699925	-327.066257	9.607456	1201.938423	-75.893446	16.586633	1109.067957	-463.843594	140.659647	1133.572875	-44.627829	229.672241	1134.371681	-40.486145	306.022656	1094.459171	-33.718425	238.944327	1166.093868	-59.637921	430.292239	1038.511296	-49.179949	446.826088	1015.537504	-178.261903	365.366441	887.974206	-28.106121	342.972060	802.376045	-39.723671	280.899123	739.665818	-39.967700	370.192830	788.922102	-62.597978	210.445447	621.746297	-57.509822	238.708501	628.986700	-143.262143	138.530234	593.861304	-96.156588	429.592488	487.765810	-116.675517	316.572945	510.540403	-40.954811	338.712057	519.421748	-153.546116	102.553625	978.734332	-484.818138	167.213209	920.935693	-489.813550	197.979695	941.282436	-486.260641	196.229988	837.017865	-481.404387	278.227433	733.698189	-463.290495	286.711992	724.894694	-340.031690	209.769603	574.466346	-473.023427	210.550588	491.343433	-452.328639	166.307824	414.079125	-438.761997	245.095522	485.885433	-434.101580	128.694796	299.225851	-411.959559	169.679200	303.857865	-330.980918	62.436776	294.184199	-363.057595	321.478708	125.872771	-346.771835	240.678617	175.888542	-312.338864	209.672665	165.740708	-429.355461	-211.887408	947.517362	-232.148681	-4.299782	84.007995	-432.656767	-8.377242	82.271787	-32.383106	
1004	5.0200	446.588813	1430.346459	-93.350594	478.601723	1409.344333	-394.779073	398.737629	1509.199119	-254.428396	410.840634	1335.330250	-240.344856	500.084146	1168.272853	-7.899775	723.650365	968.199038	-47.736132	558.566386	1159.878356	-480.884148	755.577948	928.301856	-417.554860	-108.578225	1212.724271	-285.256563	70.825566	1239.165760	-452.865672	27.955343	1278.348642	-91.628198	89.494118	1176.232791	-411.034356	71.464467	1208.343528	-133.261171	-92.223275	1271.670919	-249.171415	-80.048147	1262.628094	-327.176305	8.608491	1201.765025	-76.329933	16.239058	1110.208271	-464.301756	140.066607	1131.877803	-44.936547	229.108415	1132.040473	-40.987517	305.062300	1091.493521	-35.219088	238.475507	1164.068864	-59.690669	429.246766	1034.815193	-50.834118	444.963846	1012.094644	-179.810577	366.133204	883.063772	-28.986571	345.016169	797.158713	-40.273259	283.804736	733.533425	-40.238317	372.384730	783.950869	-63.198405	215.653231	613.846703	-56.880164	243.369286	621.765340	-143.001502	143.982297	583.909912	-95.401325	438.274980	487.847247	-116.525561	324.784361	506.513259	-40.412028	346.305759	516.769431	-153.350498	103.457606	981.506914	-485.132499	168.638250	924.249067	-490.552522	199.161899	944.839998	-486.891462	198.316966	840.501978	-482.942256	280.496241	737.106391	-465.500061	289.545896	728.125896	-342.202775	209.527610	578.792211	-474.438638	208.980398	495.690154	-453.510839	163.490558	419.217490	-439.546314	243.447694	489.712388	-435.306536	124.283462	305.466090	-412.509616	165.257333	309.531641	-331.416297	57.869832	302.631434	-363.192762	312.780195	127.462401	-349.213662	232.297651	178.520231	-312.455908	200.884354	169.327199	-429.140276	-211.993407	947.527489	-232.344864	-4.333078	84.016082	-432.745092	-8.432245	82.317002	-32.450579	
1005	5.0250	445.542769	1430.276424	-92.108891	478.931499	1408.804276	-393.405613	398.596697	1509.052847	-253.515160	410.267480	1335.177591	-239.191963	498.969519	1168.191731	-7.158995	722.858554	968.651346	-47.912128	558.434432	1159.478711	-480.278933	755.604022	927.917420	-417.778973	-109.012886	1213.609646	-285.374909	70.129588	1239.951704	-452.958548	26.816920	1279.310402	-91.736496	88.696298	1177.029771	-411.461550	70.957188	1207.961758	-132.848117	-92.597891	1272.218044	-249.329051	-80.578772	1263.567193	-327.196758	7.776784	1201.242444	-76.530339	15.917264	1111.396629	-464.603644	139.417442	1129.619063	-45.004665	228.421485	1128.840749	-41.187483	303.564556	1087.537430	-36.579251	238.057094	1160.818514	-59.605974	427.853322	1029.921770	-52.067265	442.852335	1007.421965	-180.836292	366.525915	877.072777	-29.545049	346.606976	790.677662	-40.654424	286.404187	726.304344	-40.386395	374.175196	777.911954	-63.565697	220.571821	605.054838	-56.387302	247.672498	613.488808	-142.682043	149.228861	572.786491	-94.465606	446.647249	487.494727	-116.380688	332.538625	501.563109	-39.652028	353.625760	513.088942	-152.778227	104.479845	984.328679	-485.403914	170.164965	927.802434	-491.238449	200.467661	948.650759	-487.375708	200.634737	844.292473	-484.413138	283.045772	740.905017	-467.770618	292.950469	731.909525	-344.311106	209.627527	583.396653	-475.783519	207.719995	500.424399	-454.609604	160.963760	424.792905	-440.206908	242.116829	493.904905	-436.515735	120.034710	312.221360	-413.080269	161.273980	315.593190	-331.869352	53.235318	311.504561	-363.716582	302.733850	128.197258	-349.274824	224.143207	181.945337	-312.696285	192.458573	173.778582	-429.128871	-212.112633	947.560514	-232.648195	-4.378241	84.037776	-432.843182	-8.507668	82.399724	-32.525406	
